<svg width="140" height="48" viewBox="0 0 140 48" fill="none" xmlns="http://www.w3.org/2000/svg">
<path d="M0 40L70 40L140 40" stroke="#EE6200" stroke-width="3"/>
<path d="M15.904 30.744H7.008L5.536 35H0.832L8.864 12.632H14.08L22.112 35H17.376L15.904 30.744ZM14.688 27.16L11.456 17.816L8.224 27.16H14.688ZM29.5943 20.024C30.1703 19.0853 30.9169 18.3493 31.8343 17.816C32.7729 17.2827 33.8396 17.016 35.0343 17.016V21.72H33.8503C32.4423 21.72 31.3756 22.0507 30.6503 22.712C29.9463 23.3733 29.5943 24.5253 29.5943 26.168V35H25.1143V17.272H29.5943V20.024ZM54.7878 17.272V35H50.2758V32.76C49.6998 33.528 48.9424 34.136 48.0038 34.584C47.0864 35.0107 46.0838 35.224 44.9958 35.224C43.6091 35.224 42.3824 34.936 41.3158 34.36C40.2491 33.7627 39.4064 32.8987 38.7878 31.768C38.1904 30.616 37.8918 29.2507 37.8918 27.672V17.272H42.3718V27.032C42.3718 28.44 42.7238 29.528 43.4278 30.296C44.1318 31.0427 45.0918 31.416 46.3078 31.416C47.5451 31.416 48.5158 31.0427 49.2198 30.296C49.9238 29.528 50.2758 28.44 50.2758 27.032V17.272H54.7878Z" fill="#EE6200"/>
<path d="M71.88 23.544C73.1387 23.7787 74.1733 24.408 74.984 25.432C75.7947 26.456 76.2 27.6293 76.2 28.952C76.2 30.1467 75.9013 31.2027 75.304 32.12C74.728 33.016 73.8853 33.72 72.776 34.232C71.6667 34.744 70.3547 35 68.84 35H59.208V12.664H68.424C69.9387 12.664 71.24 12.9093 72.328 13.4C73.4373 13.8907 74.2693 14.5733 74.824 15.448C75.4 16.3227 75.688 17.3147 75.688 18.424C75.688 19.7253 75.336 20.8133 74.632 21.688C73.9493 22.5627 73.032 23.1813 71.88 23.544ZM63.688 21.88H67.784C68.8507 21.88 69.672 21.6453 70.248 21.176C70.824 20.6853 71.112 19.992 71.112 19.096C71.112 18.2 70.824 17.5067 70.248 17.016C69.672 16.5253 68.8507 16.28 67.784 16.28H63.688V21.88ZM68.2 31.352C69.288 31.352 70.1307 31.096 70.728 30.584C71.3467 30.072 71.656 29.3467 71.656 28.408C71.656 27.448 71.336 26.7013 70.696 26.168C70.056 25.6133 69.192 25.336 68.104 25.336H63.688V31.352H68.2ZM78.6185 26.072C78.6185 24.28 78.9705 22.6907 79.6745 21.304C80.3998 19.9173 81.3705 18.8507 82.5865 18.104C83.8238 17.3573 85.1998 16.984 86.7145 16.984C88.0372 16.984 89.1892 17.2507 90.1705 17.784C91.1732 18.3173 91.9732 18.9893 92.5705 19.8V17.272H97.0825V35H92.5705V32.408C91.9945 33.24 91.1945 33.9333 90.1705 34.488C89.1678 35.0213 88.0052 35.288 86.6825 35.288C85.1892 35.288 83.8238 34.904 82.5865 34.136C81.3705 33.368 80.3998 32.2907 79.6745 30.904C78.9705 29.496 78.6185 27.8853 78.6185 26.072ZM92.5705 26.136C92.5705 25.048 92.3572 24.12 91.9305 23.352C91.5038 22.5627 90.9278 21.9653 90.2025 21.56C89.4772 21.1333 88.6985 20.92 87.8665 20.92C87.0345 20.92 86.2665 21.1227 85.5625 21.528C84.8585 21.9333 84.2825 22.5307 83.8345 23.32C83.4078 24.088 83.1945 25.0053 83.1945 26.072C83.1945 27.1387 83.4078 28.0773 83.8345 28.888C84.2825 29.6773 84.8585 30.2853 85.5625 30.712C86.2878 31.1387 87.0558 31.352 87.8665 31.352C88.6985 31.352 89.4772 31.1493 90.2025 30.744C90.9278 30.3173 91.5038 29.72 91.9305 28.952C92.3572 28.1627 92.5705 27.224 92.5705 26.136ZM111.282 17.016C113.394 17.016 115.101 17.688 116.402 19.032C117.703 20.3547 118.354 22.2107 118.354 24.6V35H113.874V25.208C113.874 23.8 113.522 22.7227 112.818 21.976C112.114 21.208 111.154 20.824 109.938 20.824C108.701 20.824 107.719 21.208 106.994 21.976C106.29 22.7227 105.938 23.8 105.938 25.208V35H101.458V17.272H105.938V19.48C106.535 18.712 107.293 18.1147 108.21 17.688C109.149 17.24 110.173 17.016 111.282 17.016ZM133.11 35L127.094 27.448V35H122.614V11.32H127.094V24.792L133.046 17.272H138.87L131.062 26.168L138.934 35H133.11Z" fill="white"/>
</svg>
